<svg width="33" height="37" viewBox="0 0 33 37" fill="none" xmlns="http://www.w3.org/2000/svg">
<path fill-rule="evenodd" clip-rule="evenodd" d="M17.2154 0.5C14.1385 0.5 11.3625 1.27374 8.90142 2.82788C6.44092 4.36914 4.49984 6.56085 3.07493 9.38476C1.65094 12.1944 0.866878 15.3549 0.714081 18.8565C0.5616 22.4526 1.04966 25.6181 2.19741 28.3392L2.19786 28.3403C3.35992 31.0775 5.11262 33.1873 7.45851 34.6471C9.80218 36.1181 12.5865 36.8427 15.7897 36.8427C17.1426 36.8427 18.4767 36.6816 19.791 36.3596C21.1102 36.0394 22.1979 35.6226 23.0344 35.0964L23.3631 34.8896L22.3595 31.7705L21.8222 32.0839C21.1254 32.4903 20.2301 32.8317 19.1239 33.0991L19.1227 33.0994C18.0348 33.3653 16.9491 33.4978 15.8647 33.4978C13.3303 33.4978 11.1967 32.9102 9.44102 31.7595C7.69914 30.622 6.39143 28.9709 5.52446 26.7796C4.65588 24.5718 4.28565 21.9505 4.43316 18.9019L4.43325 18.9C4.56835 15.8786 5.18765 13.2326 6.27943 10.952C7.36984 8.67428 8.84916 6.95601 10.7112 5.77435L10.7131 5.77312C12.5767 4.57849 14.7138 3.97624 17.1404 3.97624C21.2116 3.97624 24.155 5.21465 26.0732 7.61527L26.0741 7.61644C28.0185 10.0351 28.9189 13.6023 28.6844 18.4031L28.6842 18.4108C28.6111 20.6047 28.149 22.3365 27.3342 23.6402C26.532 24.9237 25.5345 25.5063 24.3252 25.5063C23.5627 25.5063 23.084 25.223 22.7835 24.6806C22.4554 24.0886 22.3064 23.1265 22.4221 21.7167L23.4228 11.0558L23.2089 10.8873C22.1848 10.0809 21.2332 9.51842 20.3574 9.23039C19.4964 8.9349 18.5344 8.79166 17.478 8.79166C16.0379 8.79166 14.6761 9.30183 13.4021 10.2838L13.4001 10.2854C12.139 11.2677 11.1182 12.6109 10.3283 14.2944L10.3276 14.2959C9.54932 15.9691 9.06806 17.8649 8.87607 19.9764C8.63323 22.5971 8.9694 24.73 9.9638 26.3101C10.9722 27.9125 12.48 28.7199 14.4203 28.7199C15.4432 28.7199 16.4248 28.4353 17.3583 27.8806L17.3601 27.8795C18.0813 27.4468 18.7294 26.8533 19.3081 26.1097C19.6636 26.826 20.1466 27.4088 20.765 27.8416C21.62 28.4401 22.6877 28.7199 23.9313 28.7199C26.3456 28.7199 28.3007 27.7759 29.7486 25.899C31.1809 24.0424 31.95 21.5439 32.1033 18.4523L32.1034 18.4487C32.2559 14.854 31.7807 11.6898 30.6592 8.96975C29.5351 6.24354 27.8135 4.13863 25.492 2.67786C23.1724 1.21838 20.4061 0.5 17.2154 0.5ZM7.45851 34.6471L7.4573 34.6464L7.72315 34.2229L7.45851 34.6471ZM12.8546 20.068C13.088 17.5377 13.6677 15.5926 14.5594 14.1957C15.4525 12.816 16.5225 12.1929 17.7782 12.1929C18.3862 12.1929 18.9586 12.3084 19.4996 12.5394L18.6689 21.6225L18.6577 21.7229C18.2301 22.8317 17.7001 23.6508 17.0851 24.2109L17.0818 24.2139C16.4623 24.7884 15.8593 25.0373 15.2644 25.0373C14.7876 25.0373 14.4017 24.935 14.0878 24.7501C13.7751 24.5658 13.5054 24.2828 13.2858 23.8765C12.853 23.0527 12.6833 21.806 12.8543 20.0711L12.8546 20.068Z" fill="white"/>
</svg>
