<svg width="14" height="14" viewBox="0 0 14 14" fill="none" xmlns="http://www.w3.org/2000/svg">
<path fill-rule="evenodd" clip-rule="evenodd" d="M6.85279 0C5.22513 0.000955431 3.6509 0.582498 2.41163 1.64062C1.17235 2.69875 0.348846 4.16446 0.0883986 5.77558C-0.17205 7.38673 0.147538 9.03826 0.990013 10.4348C1.83248 11.8313 3.14291 12.8818 4.68688 13.3983C5.02978 13.4611 5.15486 13.2494 5.15486 13.0671C5.15486 12.9039 5.1489 12.4715 5.14556 11.8978C3.2394 12.314 2.83622 10.9764 2.83622 10.9764C2.52434 10.1817 2.07376 9.97077 2.07376 9.97077C1.45116 9.54402 2.12142 9.55311 2.12142 9.55311C2.33867 9.58318 2.54621 9.6626 2.7282 9.78532C2.91019 9.90807 3.06179 10.0709 3.17149 10.2613C3.78289 11.3126 4.77626 11.0087 5.16678 10.8326C5.1981 10.484 5.35247 10.158 5.60208 9.91341C4.07977 9.73996 2.4793 9.15049 2.4793 6.51552C2.46938 5.83247 2.72212 5.17184 3.18508 4.6707C2.97566 4.07774 2.99977 3.42697 3.25249 2.85121C3.25249 2.85121 3.82768 2.66628 5.13769 3.55583C6.26123 3.24748 7.44673 3.24748 8.57027 3.55583C9.87932 2.66675 10.4526 2.85121 10.4526 2.85121C10.7057 3.42682 10.7302 4.07756 10.5212 4.6707C10.9842 5.17172 11.2366 5.83253 11.2258 6.51552C11.2258 9.15672 9.62222 9.73782 8.09538 9.9084C8.34151 10.1206 8.56073 10.5406 8.56073 11.1817C8.56073 12.1009 8.55215 12.8423 8.55215 13.0676C8.55215 13.2511 8.67579 13.4649 9.02393 13.398C10.5678 12.881 11.878 11.83 12.72 10.4331C13.562 9.03609 13.881 7.38435 13.6198 5.7732C13.3587 4.16205 12.5344 2.6966 11.2946 1.63899C10.0547 0.581383 8.48006 0.000582316 6.85231 0.000477415L6.85279 0Z" fill="white" />
</svg>
