<svg width="84" height="70" viewBox="0 0 84 70" fill="none" xmlns="http://www.w3.org/2000/svg">
<path d="M56.5348 5.90959C47.9138 -0.124409 36.6618 -1.39041 26.6588 1.44059C16.0348 4.42059 8.15284 11.7126 3.56184 21.6556C-1.02916 31.5986 -1.83016 42.6396 5.04684 51.6666C11.6178 60.2736 21.9128 64.1956 32.3578 65.6056C43.5668 67.1236 56.5718 67.6416 65.8258 60.1286C68.6538 57.8556 64.6468 53.9056 61.8568 56.1556C55.0458 61.6706 45.0998 61.1756 36.8738 60.4876C27.8468 59.7336 18.3678 57.4376 11.7498 50.8626C5.13184 44.2876 4.20784 35.5356 7.38984 26.9336C10.5718 18.3316 16.5248 11.0766 25.2898 7.78659C34.6698 4.27059 45.4038 4.92959 53.7038 10.7566C56.6688 12.8356 59.4738 7.97059 56.5318 5.91059L56.5348 5.90959Z" fill="white"/>
<path d="M30.9449 19.8256C34.6724 24.1059 37.2371 29.2724 38.3929 34.8294C39.5487 40.3863 39.2566 46.147 37.5449 51.5586C36.4559 55.0086 41.8719 56.4896 42.9559 53.0526C44.9134 46.6828 45.2006 39.9167 43.7898 33.4039C42.3791 26.8912 39.3178 20.8504 34.8999 15.8616C32.5099 13.1606 28.5549 17.1386 30.9449 19.8256Z" fill="white"/>
<path d="M43.7238 40.8716C53.366 26.6475 66.7393 15.3535 82.3768 8.22859C85.6768 6.72859 82.8058 1.88859 79.5488 3.38259C63.0693 10.984 48.9991 22.9732 38.8788 38.0376C36.8568 41.0376 41.7068 43.8546 43.7248 40.8656L43.7238 40.8716Z" fill="white"/>
<path d="M55.7898 23.9746C63.6626 37.5669 69.2797 52.3456 72.4228 67.7356C73.1488 71.2706 78.5508 69.7766 77.8338 66.2416C74.5697 50.3792 68.7614 35.1492 60.6338 21.1416C58.8238 18.0166 53.9738 20.8416 55.7878 23.9696L55.7898 23.9746Z" fill="white"/>
</svg>
