<svg width="16" height="13" viewBox="0 0 16 13" fill="none" xmlns="http://www.w3.org/2000/svg">
<path d="M5.20667 12.5166C10.6053 12.5166 13.5575 8.04442 13.5575 4.16628C13.5575 4.03921 13.5548 3.91279 13.5493 3.78703C14.1237 3.37145 14.6194 2.85684 15.0133 2.26733C14.4777 2.50486 13.9095 2.66063 13.3277 2.72944C13.9405 2.36267 14.3992 1.78578 14.6183 1.10611C14.0421 1.44791 13.4117 1.68882 12.7545 1.81849C12.312 1.34822 11.7268 1.03688 11.0895 0.932603C10.4523 0.828325 9.7984 0.936928 9.22904 1.24163C8.65972 1.54632 8.20665 2.03013 7.93996 2.6182C7.67326 3.20626 7.60782 3.86583 7.7537 4.49481C6.58662 4.43646 5.4449 4.13329 4.4026 3.60503C3.36032 3.0768 2.44078 2.33527 1.70371 1.4286C1.32841 2.07472 1.21346 2.83958 1.38226 3.56747C1.55106 4.29535 1.99091 4.93158 2.6123 5.34659C2.1464 5.33223 1.69074 5.20632 1.28359 4.97941C1.28359 4.99172 1.28359 5.00355 1.28359 5.01684C1.28378 5.69444 1.51838 6.35108 1.94756 6.87543C2.37674 7.39979 2.97409 7.75952 3.63831 7.89368C3.2061 8.01155 2.75262 8.02871 2.31274 7.94393C2.50017 8.52708 2.86522 9.0371 3.35682 9.40259C3.84841 9.76807 4.44199 9.97075 5.05447 9.98228C4.01482 10.7982 2.73086 11.2407 1.40922 11.2384C1.17509 11.2387 0.941164 11.2251 0.708633 11.1978C2.05066 12.06 3.6125 12.5176 5.20765 12.5161" fill="white" />
</svg>
