<svg width="75" height="37" viewBox="0 0 75 37" fill="none" xmlns="http://www.w3.org/2000/svg">
<path d="M0.535034 18.1076V36.1939H6.95821C14.0637 36.1939 17.0196 35.2901 19.1799 32.5204C21.3401 29.808 21.6813 27.4339 21.4535 16.6963C21.279 7.20168 21.1691 6.41061 19.9188 4.37914C17.7595 0.870481 15.3715 0.023025 7.35693 0.023025H0.535034V18.1076ZM13.6667 7.30924C14.9754 8.38309 15.0312 8.61035 15.0312 17.765C15.0312 26.6377 14.9745 27.2032 13.781 28.3898C12.8143 29.2937 11.7917 29.6328 9.80161 29.6328L7.07337 29.6892L6.90411 17.9384L6.78807 6.23973H9.57389C11.0214 6.11577 12.4675 6.49366 13.6667 7.30924ZM26.7407 1.49241C25.6065 2.9618 25.5472 3.69649 25.5472 18.2212V33.4234L26.9711 34.78C28.2798 36.1366 28.6192 36.193 36.0667 36.193H43.7444V30.0353L37.946 29.8618L32.0908 29.6883V21.2164L35.6679 21.0429L39.1927 20.8694V14.7108H31.8029V6.23973H43.7375V0.023025H35.8363C27.9308 0.023025 27.8776 0.0230249 26.7407 1.49241ZM49.9905 8.04827C51.1849 12.5137 53.1175 19.7999 54.311 24.3243C56.1301 31.2757 56.7539 32.8015 58.2904 34.3272C59.1131 35.3121 60.262 35.9733 61.5308 36.1922C63.2932 36.1922 65.5668 34.44 66.3625 32.4059C66.9314 30.9365 75.0001 0.983244 75.0001 0.304932C75.0001 0.131451 73.4087 0.0221576 71.4752 0.131451L67.8981 0.304932L64.7135 12.4564C62.7243 20.1425 61.4165 24.2115 61.1887 23.4768C60.7359 22.0638 55.1067 0.531325 55.1067 0.249418C53.907 0.0330153 52.686 -0.0429666 51.4685 0.023025H47.8303L49.9905 8.04827Z" fill="white"/>
</svg>
