<svg width="46" height="36" viewBox="0 0 46 36" fill="none" xmlns="http://www.w3.org/2000/svg">
<path fill-rule="evenodd" clip-rule="evenodd" d="M11.2881 10H1C0.447693 10 0 10.4477 0 11V25C0 25.5523 0.447693 26 1 26H10.9175L23.3844 35.7381C24.041 36.2509 25 35.7831 25 34.95V1.08424C25 0.245098 24.0288 -0.220879 23.3743 0.304214L11.2881 10Z" fill="white"/>
<path d="M29.5 25C29.5 25 31.5001 21.5 31.5 18C31.4999 14.5 29.5 11 29.5 11" stroke="white" stroke-width="3" stroke-linecap="round"/>
<path d="M34 31C34 31 38.0001 24.75 38 18.5C37.9999 12.25 34 6 34 6" stroke="white" stroke-width="3" stroke-linecap="round"/>
<path d="M38 34C38 34 44.0002 26 44 18C43.9998 10 38 2 38 2" stroke="white" stroke-width="3" stroke-linecap="round"/>
</svg>
